<?xml version="1.0" encoding="UTF-8"?><svg id="a" xmlns="http://www.w3.org/2000/svg" viewBox="0 0 470.71 576"><defs><style>.b{fill:#fff;}</style></defs><path class="b" d="M25.97,386.36l48.89,114.39,81.71-114.39H25.97ZM289.58,184.13h.5l6.13-8.58c-2.19,2.87-4.4,5.73-6.63,8.58Z"/><polygon class="b" points="442.56 188.51 311.95 188.51 393.66 74.12 442.56 188.51"/><g><path class="b" d="M418.14,0c-39.11,59.88-78.43,118.92-121.94,175.56-2.19,2.87-4.4,5.73-6.63,8.58h-121.13l-12.29,28.59h113.49l-81.71,114.39H24.61L0,269.93,85.8,69.74H348.27c23.3-23.23,46.25-46.81,69.87-69.74Z"/><path class="b" d="M289.58,184.13s-.02,.04-.04,.07c0-.02,.02-.04,.02-.07h.02Z"/></g><polygon class="b" points="470.71 300.56 384.91 500.75 131.83 500.75 102.91 547.01 123.67 500.75 128.17 490.68 118.37 500.75 45.04 576 180.63 386.36 302.26 386.36 314.56 357.74 201.06 357.74 282.77 243.35 446.12 243.35 470.71 300.56"/></svg>